<svg width="20" height="20" viewBox="0 0 25 26" fill="none" xmlns="http://www.w3.org/2000/svg">
<path fill-rule="evenodd" clip-rule="evenodd" d="M11.1446 16.4125C11.2712 16.2808 11.3716 16.1245 11.4401 15.9525C11.5087 15.7805 11.5439 15.5962 11.5439 15.41C11.5439 15.2238 11.5087 15.0395 11.4401 14.8675C11.3716 14.6954 11.2712 14.5392 11.1446 14.4075C10.7889 14.0377 10.5068 13.5986 10.3143 13.1154C10.1219 12.6321 10.0228 12.1142 10.0228 11.5911C10.0228 11.0681 10.1219 10.5501 10.3143 10.0669C10.5068 9.58367 10.7889 9.1446 11.1446 8.77475L15.7353 4.00202C16.0909 3.63216 16.5132 3.33878 16.9778 3.13862C17.4425 2.93845 17.9405 2.83543 18.4435 2.83543C18.9465 2.83543 19.4445 2.93845 19.9092 3.13862C20.3738 3.33878 20.7961 3.63216 21.1517 4.00202C21.5074 4.37187 21.7895 4.81095 21.9819 5.29418C22.1744 5.77742 22.2735 6.29535 22.2735 6.8184C22.2735 7.34145 22.1744 7.85938 21.9819 8.34262C21.7895 8.82585 21.5074 9.26493 21.1517 9.63478L19.7327 11.1091C19.6061 11.2408 19.5057 11.3971 19.4372 11.5691C19.3687 11.7411 19.3334 11.9254 19.3334 12.1116C19.3334 12.2978 19.3687 12.4821 19.4372 12.6541C19.5057 12.8262 19.6061 12.9824 19.7327 13.1141C19.9884 13.38 20.3351 13.5293 20.6967 13.5293C20.8757 13.5293 21.053 13.4927 21.2184 13.4214C21.3838 13.3502 21.534 13.2457 21.6606 13.1141L23.0796 11.6397C24.3092 10.361 25 8.62675 25 6.8184C25 5.01005 24.3092 3.27576 23.0796 1.99706C21.8501 0.718365 20.1824 0 18.4435 0C16.7046 0 15.0369 0.718365 13.8074 1.99706L9.21666 6.76979C8.60781 7.40293 8.12484 8.15458 7.79533 8.98183C7.46582 9.80907 7.29622 10.6957 7.29622 11.5911C7.29622 12.4865 7.46582 13.3732 7.79533 14.2004C8.12484 15.0277 8.60781 15.7793 9.21666 16.4125C9.74895 16.966 10.6123 16.966 11.1446 16.4125ZM13.8061 9.63478C13.6795 9.76643 13.579 9.92271 13.5105 10.0947C13.442 10.2667 13.4067 10.4511 13.4067 10.6373C13.4067 10.8234 13.442 11.0078 13.5105 11.1798C13.579 11.3518 13.6795 11.5081 13.8061 11.6397C14.1617 12.0096 14.4438 12.4487 14.6363 12.9319C14.8288 13.4151 14.9279 13.9331 14.9279 14.4561C14.9279 14.9792 14.8288 15.4971 14.6363 15.9803C14.4438 16.4636 14.1617 16.9027 13.8061 17.2725L9.2621 21.998C8.90833 22.3765 8.48575 22.6781 8.0189 22.8853C7.55205 23.0925 7.05026 23.2011 6.5427 23.2048C6.03513 23.2086 5.53191 23.1073 5.0623 22.907C4.59269 22.7067 4.16605 22.4113 3.80718 22.038C3.44831 21.6647 3.16437 21.221 2.97187 20.7326C2.77937 20.2441 2.68215 19.7208 2.68585 19.193C2.68956 18.6651 2.79411 18.1433 2.99345 17.6579C3.19279 17.1724 3.48292 16.733 3.84699 16.3652L5.17773 14.9813C5.43339 14.7155 5.57702 14.3549 5.57702 13.9788C5.57702 13.6028 5.43339 13.2422 5.17773 12.9764C4.92207 12.7105 4.57531 12.5611 4.21376 12.5611C3.8522 12.5611 3.50545 12.7105 3.24979 12.9764L1.92035 14.3603C0.690771 15.639 0 17.3732 0 19.1816C0 20.99 0.690771 22.7242 1.92035 24.0029C3.14993 25.2816 4.8176 26 6.55649 26C8.29538 26 9.96306 25.2816 11.1926 24.0029L15.7366 19.2775C16.3455 18.6443 16.8284 17.8927 17.1579 17.0654C17.4874 16.2382 17.657 15.3515 17.657 14.4561C17.657 13.5607 17.4874 12.6741 17.1579 11.8468C16.8284 11.0196 16.3455 10.2679 15.7366 9.63478C15.61 9.50313 15.4597 9.39869 15.2943 9.32744C15.1289 9.25619 14.9517 9.21952 14.7726 9.21952C14.5936 9.21952 14.4163 9.25619 14.2509 9.32744C14.0855 9.39869 13.9352 9.50313 13.8087 9.63478H13.8061Z" fill="#4D94F8"/>
</svg>
