<svg width="170" height="39" viewBox="0 0 170 39" fill="none" xmlns="http://www.w3.org/2000/svg">
<path d="M23.1405 10.72C23.8072 10.7227 24.4606 10.872 25.0316 11.1523L26.4815 9.97211C26.0674 9.41612 25.8876 8.7653 25.9694 8.11854C26.0513 7.47178 26.3902 6.86445 26.9348 6.38882L26.0609 4.6109C26.0235 4.6109 25.9879 4.62004 25.9504 4.62004C25.285 4.62536 24.6384 4.44019 24.1237 4.09687C23.609 3.75356 23.2589 3.27394 23.1345 2.74183C23.0102 2.20972 23.1195 1.65895 23.4433 1.18578C23.7672 0.712601 24.285 0.347106 24.9064 0.153161C25.5277 -0.0407839 26.213 -0.0508457 26.8425 0.124734C27.472 0.300314 28.0057 0.650369 28.3503 1.11373C28.695 1.57709 28.8286 2.12429 28.7279 2.65971C28.6272 3.19512 28.2985 3.68471 27.7993 4.04291L28.5383 5.54713C29.0389 5.40334 29.5727 5.35274 30.1005 5.39905C30.6283 5.44536 31.1366 5.5874 31.588 5.81473L34.6546 3.31939L34.6612 3.31481C34.4778 3.00918 34.3817 2.67374 34.3802 2.3336C34.3802 1.88123 34.545 1.43903 34.8537 1.0629C35.1625 0.686769 35.6013 0.393612 36.1148 0.220498C36.6282 0.0473852 37.1932 0.00209088 37.7383 0.0903432C38.2833 0.178596 38.784 0.396431 39.177 0.716302C39.57 1.03617 39.8376 1.44371 39.946 1.88739C40.0544 2.33106 39.9988 2.79094 39.7861 3.20888C39.5734 3.62681 39.2133 3.98402 38.7512 4.23534C38.2891 4.48666 37.7458 4.62081 37.1901 4.62081C36.7722 4.61948 36.3601 4.5413 35.9846 4.39209L35.979 4.39895L32.9125 6.89353C33.3213 7.44195 33.5017 8.08313 33.427 8.72173C33.3522 9.36032 33.0262 9.96222 32.4975 10.4379L35.1576 13.0835C35.3615 13.0348 35.5726 13.0091 35.7851 13.0072C36.3032 13.0022 36.809 13.1356 37.2251 13.3868C37.6412 13.6381 37.9446 13.9934 38.089 14.3984C38.2334 14.8034 38.2107 15.2358 38.0245 15.6293C37.8383 16.0229 37.4987 16.3559 37.0578 16.5774C36.617 16.7989 36.0991 16.8967 35.5834 16.8558C35.0677 16.8149 34.5828 16.6375 34.2027 16.3509C33.8227 16.0643 33.5685 15.6842 33.4791 15.2688C33.3896 14.8535 33.4699 14.4257 33.7077 14.051L30.9399 11.2964C30.429 11.4526 29.881 11.5116 29.3378 11.469C28.7946 11.4263 28.2706 11.283 27.8059 11.0501L26.356 12.2303C26.7003 12.6951 26.8838 13.2269 26.8871 13.7696C26.8871 14.3728 26.6673 14.9624 26.2556 15.4639C25.844 15.9654 25.2588 16.3563 24.5742 16.5871C23.8896 16.8179 23.1363 16.8783 22.4096 16.7606C21.6828 16.643 21.0152 16.3525 20.4913 15.926C19.9673 15.4995 19.6105 14.9561 19.4659 14.3646C19.3214 13.773 19.3956 13.1598 19.6791 12.6026C19.9627 12.0454 20.4429 11.5691 21.059 11.234C21.6751 10.8989 22.3995 10.72 23.1405 10.72ZM37.1901 3.096C37.3753 3.096 37.5564 3.05129 37.7105 2.96751C37.8645 2.88374 37.9845 2.76467 38.0554 2.62536C38.1263 2.48605 38.1449 2.33276 38.1087 2.18486C38.0726 2.03697 37.9834 1.90113 37.8524 1.7945C37.7214 1.68788 37.5545 1.61527 37.3728 1.58585C37.1911 1.55643 37.0028 1.57153 36.8316 1.62923C36.6605 1.68694 36.5142 1.78466 36.4113 1.91003C36.3084 2.03541 36.2534 2.18281 36.2534 2.3336C36.2534 2.5358 36.3521 2.72972 36.5278 2.8727C36.7034 3.01568 36.9417 3.096 37.1901 3.096ZM31.5702 8.43282C31.5702 8.13124 31.4604 7.83643 31.2545 7.58568C31.0487 7.33493 30.7561 7.13949 30.4138 7.02408C30.0715 6.90867 29.6949 6.87848 29.3315 6.93731C28.9681 6.99615 28.6343 7.14137 28.3724 7.35462C28.1104 7.56787 27.932 7.83956 27.8597 8.13534C27.7874 8.43112 27.8245 8.73771 27.9663 9.01633C28.1081 9.29496 28.3482 9.5331 28.6562 9.70064C28.9643 9.86819 29.3265 9.95762 29.697 9.95762C30.1938 9.95762 30.6703 9.79697 31.0216 9.51101C31.3729 9.22506 31.5702 8.83722 31.5702 8.43282ZM23.1405 15.2944C23.511 15.2944 23.8732 15.205 24.1812 15.0375C24.4893 14.8699 24.7294 14.6318 24.8712 14.3531C25.013 14.0745 25.0501 13.7679 24.9778 13.4722C24.9055 13.1764 24.7271 12.9047 24.4651 12.6914C24.2031 12.4782 23.8693 12.333 23.506 12.2741C23.1426 12.2153 22.7659 12.2455 22.4236 12.3609C22.0813 12.4763 21.7888 12.6717 21.5829 12.9225C21.3771 13.1732 21.2672 13.4681 21.2672 13.7696C21.2672 14.174 21.4646 14.5619 21.8159 14.8478C22.1672 15.1338 22.6437 15.2944 23.1405 15.2944ZM22.2039 6.90801C21.8334 6.90801 21.4712 6.99744 21.1631 7.16499C20.8551 7.33254 20.615 7.57068 20.4732 7.8493C20.3314 8.12792 20.2943 8.43451 20.3666 8.73029C20.4389 9.02607 20.6173 9.29777 20.8792 9.51101C21.1412 9.72426 21.475 9.86949 21.8384 9.92832C22.2018 9.98716 22.5784 9.95696 22.9207 9.84155C23.263 9.72614 23.5556 9.5307 23.7614 9.27995C23.9673 9.0292 24.0771 8.73439 24.0771 8.43282C24.0771 8.02841 23.8798 7.64057 23.5285 7.35462C23.1772 7.06866 22.7007 6.90801 22.2039 6.90801ZM37.1901 9.19522C37.5606 9.19522 37.9228 9.10579 38.2308 8.93824C38.5389 8.77069 38.779 8.53255 38.9208 8.25393C39.0625 7.97531 39.0996 7.66872 39.0274 7.37294C38.9551 7.07716 38.7767 6.80546 38.5147 6.59222C38.2527 6.37897 37.9189 6.23374 37.5555 6.17491C37.1922 6.11607 36.8155 6.14627 36.4732 6.26168C36.1309 6.37709 35.8383 6.57253 35.6325 6.82328C35.4267 7.07403 35.3168 7.36884 35.3168 7.67041C35.3168 8.07482 35.5142 8.46266 35.8655 8.74861C36.2168 9.03457 36.6933 9.19522 37.1901 9.19522ZM19.3939 4.62081C19.3939 4.7716 19.4489 4.919 19.5518 5.04437C19.6547 5.16975 19.801 5.26747 19.9721 5.32517C20.1433 5.38288 20.3316 5.39798 20.5133 5.36856C20.695 5.33914 20.8619 5.26653 20.9929 5.15991C21.1239 5.05328 21.2131 4.91744 21.2492 4.76954C21.2854 4.62165 21.2668 4.46836 21.1959 4.32905C21.125 4.18974 21.005 4.07067 20.8509 3.98689C20.6969 3.90312 20.5158 3.8584 20.3306 3.8584C20.0822 3.8584 19.8439 3.93873 19.6683 4.08171C19.4926 4.22469 19.3939 4.41861 19.3939 4.62081ZM39.0634 10.72C38.8781 10.72 38.697 10.7647 38.543 10.8485C38.389 10.9323 38.2689 11.0514 38.198 11.1907C38.1271 11.33 38.1086 11.4833 38.1447 11.6312C38.1809 11.7791 38.2701 11.9149 38.4011 12.0215C38.532 12.1281 38.6989 12.2008 38.8806 12.2302C39.0623 12.2596 39.2506 12.2445 39.4218 12.1868C39.5929 12.1291 39.7392 12.0314 39.8421 11.906C39.9451 11.7806 40 11.6332 40 11.4824C40 11.2802 39.9013 11.0863 39.7257 10.9433C39.55 10.8003 39.3118 10.72 39.0634 10.72Z" fill="#4D94F8"/>
<path fill-rule="evenodd" clip-rule="evenodd" d="M33.8574 26.7687C33.743 27.5688 33.4535 28.33 33.0116 28.9923C32.5698 29.6547 31.9882 30.1998 31.312 30.5847C31.1247 30.694 30.9285 30.7858 30.726 30.8589C30.9834 34.4496 25.5638 35.7553 22.6432 34.9001L23.7284 38.8956L20.938 39.0001L16.0548 31.639C14.4085 32.1287 12.4645 32.3637 11.2089 30.2419C11.0948 30.047 10.9913 29.8453 10.8988 29.638C10.5794 29.7066 10.2544 29.7415 9.92839 29.7425C8.99827 29.7425 7.44805 29.4487 6.66055 28.8742C6.03622 28.4384 5.54092 27.8263 5.23125 27.1082C3.55393 27.3498 2.13083 26.9352 1.20071 25.9102C0.0225457 24.6338 -0.3123 22.5251 0.301584 20.2629C1.11079 17.2435 3.57253 13.8421 8.46499 12.5657C8.88941 12.0102 9.39735 11.5316 9.9687 11.149C13.0412 9.07617 18.0298 8.89663 21.8154 10.865C23.283 10.5772 24.798 10.7299 26.187 11.3057C28.9092 12.3796 30.8872 14.6255 31.2593 16.9072C31.9963 17.3093 32.5996 17.9377 32.9893 18.7091C33.8047 20.3217 33.9194 21.9375 33.3707 23.2433C33.8875 24.3332 34.0583 25.5691 33.8574 26.7687ZM31.8484 25.0713C31.4149 25.3122 30.9325 25.4382 30.4423 25.4382C29.9522 25.4382 29.4697 25.3122 29.0363 25.0713L29.2626 23.4881C30.2175 23.586 30.9958 23.2726 31.4019 22.6296C31.8577 21.9147 31.7864 20.8538 31.2097 19.7145C30.5648 18.4382 29.1727 18.2358 28.4007 18.226H28.3511C26.4164 18.226 24.4446 19.3848 23.6478 20.8962L22.4882 20.3119C22.7162 19.5333 23.1035 18.8169 23.623 18.213C23.1757 17.8132 22.8377 17.2953 22.6437 16.7124C22.4498 16.1295 22.4068 15.5026 22.5192 14.8964L23.6633 14.7854C23.7156 15.2757 23.9082 15.7377 24.2155 16.1102C24.5228 16.4827 24.9304 16.7481 25.384 16.8713C26.3383 16.4228 27.3745 16.2 28.4193 16.2185C28.5681 16.2185 28.7107 16.2348 28.8565 16.2446C28.1152 14.8609 26.9404 13.7913 25.5328 13.2186C22.0975 11.8149 19.7815 13.9922 19.2514 14.743C17.974 16.5449 18.7925 18.2489 19.4157 19.3555L18.3925 20.3348C17.5015 19.5233 16.9036 18.413 16.6997 17.1912C15.3882 17.6058 13.6272 17.5177 12.6413 15.7451L13.5714 15.0727C14.6162 15.8953 16.275 15.8235 17.0625 14.8083C17.2501 14.3594 17.4874 13.9354 17.7694 13.545C18.2171 12.9225 18.7573 12.3802 19.3692 11.939C16.7989 11.2012 13.1683 11.322 10.9732 12.804C10.3801 13.1667 9.89181 13.6925 9.56081 14.325C9.22984 14.9576 9.06858 15.6731 9.09438 16.3947C9.09438 17.5601 9.9625 19.4012 11.1314 19.6884L10.4524 21.0758C9.70659 20.8939 9.02955 20.4812 8.5084 19.8908L7.50076 21.2422L6.49312 20.7265L7.47906 18.0106C7.31796 17.4831 7.23537 16.9325 7.23413 16.3784C7.23661 15.9397 7.28023 15.5024 7.36434 15.0727C4.26392 16.4209 2.73231 18.6634 2.17114 20.7134C1.74018 22.2901 1.9076 23.7133 2.6145 24.4772C3.17567 25.0843 4.03449 25.228 4.8437 25.1725L7.014 23.3934L7.72709 24.0267L7.08221 26.2529C7.42015 27.3857 8.527 27.97 10.5454 27.5587C10.65 26.6574 10.9879 25.8038 11.522 25.0909C11.9137 24.4974 12.4319 24.0091 13.035 23.6644L14.0954 20.6579L15.1557 20.609L15.041 23.0735C16.8237 22.8809 18.8173 23.2628 20.6744 22.9691L21.0155 24.2748C18.2933 25.6001 15.506 23.4391 12.9792 26.2889C12.0708 27.3138 12.418 28.205 12.9792 29.1027C13.7884 30.3856 15.3076 29.6152 16.8609 29.1027C19.2142 28.3454 20.9225 27.797 24.1438 28.0744C23.3749 26.5369 23.4493 24.6795 24.4787 22.6361L25.9948 23.2661C24.9313 25.8482 25.9266 27.3432 26.6149 28.0026C27.6783 29.0211 29.2781 29.3279 30.3354 28.7142C30.7403 28.4789 31.0885 28.1485 31.3529 27.749C31.6174 27.3494 31.791 26.8911 31.8608 26.4096C31.9305 25.966 31.9253 25.5129 31.8453 25.0713H31.8484Z" fill="#4D94F8"/>
<path d="M48.4 29C48.2293 29 48.144 28.9147 48.144 28.744V15.528C48.144 15.2507 48.1867 15.048 48.272 14.92C48.3787 14.792 48.5387 14.6853 48.752 14.6C49.0293 14.4933 49.4027 14.376 49.872 14.248C50.3627 14.12 50.8853 14.0133 51.44 13.928C52.016 13.8213 52.5493 13.768 53.04 13.768C54.256 13.768 55.2373 13.96 55.984 14.344C56.752 14.7067 57.3707 15.208 57.84 15.848C58.1387 15.4 58.512 15.0267 58.96 14.728C59.4293 14.4293 59.92 14.1947 60.432 14.024C60.9653 13.8533 61.488 13.768 62 13.768C63.5787 13.768 64.7947 14.088 65.648 14.728C66.5227 15.368 67.1307 16.232 67.472 17.32C67.8133 18.3867 67.984 19.592 67.984 20.936C67.984 22.024 67.9627 23.0693 67.92 24.072C67.8773 25.0533 67.824 25.9387 67.76 26.728C67.7173 27.5173 67.664 28.1893 67.6 28.744C67.6 28.8507 67.5787 28.9253 67.536 28.968C67.4933 28.9893 67.4293 29 67.344 29H65.616C65.5093 29 65.4347 28.9787 65.392 28.936C65.3707 28.872 65.36 28.776 65.36 28.648C65.4027 28.264 65.4347 27.656 65.456 26.824C65.4987 25.9707 65.5307 25.0107 65.552 23.944C65.5947 22.8773 65.616 21.832 65.616 20.808C65.616 20.2107 65.552 19.6133 65.424 19.016C65.3173 18.3973 65.1253 17.8427 64.848 17.352C64.5707 16.84 64.1973 16.4347 63.728 16.136C63.2587 15.816 62.672 15.656 61.968 15.656C61.136 15.656 60.4533 15.88 59.92 16.328C59.408 16.7547 59.152 17.3627 59.152 18.152C59.152 19.2613 59.152 20.2747 59.152 21.192C59.1733 22.1093 59.184 22.9733 59.184 23.784C59.184 24.5733 59.1733 25.3627 59.152 26.152C59.152 26.9413 59.152 27.784 59.152 28.68C59.152 28.8933 59.0453 29 58.832 29H57.136C56.9653 29 56.88 28.9147 56.88 28.744V20.904C56.88 19.8587 56.7627 18.9413 56.528 18.152C56.2933 17.3627 55.8987 16.7547 55.344 16.328C54.8107 15.88 54.0533 15.656 53.072 15.656C52.6667 15.656 52.2827 15.6987 51.92 15.784C51.5573 15.848 51.2267 15.9333 50.928 16.04C50.5867 16.168 50.416 16.4133 50.416 16.776V28.712C50.416 28.904 50.3307 29 50.16 29H48.4ZM74.3885 9.736C74.3885 10.12 74.3032 10.4187 74.1325 10.632C73.9832 10.824 73.6418 10.92 73.1085 10.92C72.5965 10.92 72.2445 10.824 72.0525 10.632C71.8818 10.4187 71.7965 10.12 71.7965 9.736C71.7965 9.37333 71.8818 9.096 72.0525 8.904C72.2445 8.69067 72.5965 8.584 73.1085 8.584C73.6632 8.584 74.0152 8.69067 74.1645 8.904C74.3138 9.096 74.3885 9.37333 74.3885 9.736ZM74.2605 28.776C74.2605 28.9253 74.1752 29 74.0045 29H72.2125C72.0632 29 71.9885 28.9253 71.9885 28.776V14.12C71.9885 13.9707 72.0632 13.896 72.2125 13.896H74.0045C74.1752 13.896 74.2605 13.9707 74.2605 14.12V28.776ZM78.6813 29C78.5106 29 78.4253 28.9147 78.4253 28.744C78.4253 26.4827 78.4253 24.2213 78.4253 21.96C78.4253 19.6987 78.4253 17.4267 78.4253 15.144C78.4253 15.016 78.4679 14.9093 78.5533 14.824C78.6386 14.7173 78.8306 14.6107 79.1293 14.504C79.4066 14.4187 79.8119 14.3227 80.3453 14.216C80.8999 14.088 81.4866 13.9707 82.1053 13.864C82.7453 13.7573 83.3319 13.704 83.8653 13.704C85.5079 13.704 86.7666 14.024 87.6413 14.664C88.5373 15.304 89.1559 16.1787 89.4973 17.288C89.8386 18.376 90.0093 19.5813 90.0093 20.904C90.0093 21.8853 89.9879 22.8773 89.9453 23.88C89.9026 24.8613 89.8493 25.768 89.7853 26.6C89.7426 27.432 89.6999 28.0933 89.6573 28.584C89.6359 28.776 89.5933 28.8933 89.5293 28.936C89.4866 28.9787 89.3693 29 89.1773 29H87.8013C87.6306 29 87.5133 28.9787 87.4493 28.936C87.3853 28.872 87.3639 28.7653 87.3853 28.616C87.3853 28.488 87.3959 28.1467 87.4173 27.592C87.4599 27.0373 87.5026 26.376 87.5453 25.608C87.5879 24.8187 87.6199 24.008 87.6413 23.176C87.6839 22.3227 87.7053 21.544 87.7053 20.84C87.7053 19.688 87.5666 18.728 87.2893 17.96C87.0119 17.192 86.5853 16.616 86.0093 16.232C85.4546 15.848 84.7293 15.656 83.8333 15.656C83.3639 15.656 82.9053 15.6987 82.4573 15.784C82.0093 15.8693 81.6039 15.976 81.2413 16.104C81.1133 16.1253 80.9853 16.2 80.8573 16.328C80.7506 16.4347 80.6973 16.6267 80.6973 16.904C80.6973 18.0987 80.6973 19.3573 80.6973 20.68C80.6973 22.0027 80.6973 23.3467 80.6973 24.712C80.6973 26.056 80.6973 27.4 80.6973 28.744C80.6973 28.9147 80.6226 29 80.4733 29H78.6813ZM93.2838 21.64C93.3051 20.0187 93.4971 18.7067 93.8598 17.704C94.2438 16.68 94.7451 15.8907 95.3638 15.336C95.9824 14.76 96.6544 14.376 97.3798 14.184C98.1264 13.9707 98.8624 13.864 99.5878 13.864C100.164 13.864 100.718 13.9067 101.252 13.992C101.806 14.056 102.254 14.1307 102.596 14.216C102.83 14.28 102.99 14.312 103.076 14.312C103.182 14.2907 103.236 14.184 103.236 13.992C103.236 13.6293 103.225 13.1813 103.204 12.648C103.204 12.0933 103.182 11.5173 103.14 10.92C103.118 10.3227 103.097 9.74667 103.076 9.192C103.054 8.63733 103.033 8.15733 103.012 7.752C102.99 7.34667 102.969 7.08 102.948 6.952C102.926 6.78133 102.937 6.67467 102.98 6.632C103.044 6.58933 103.118 6.568 103.204 6.568H104.932C105.017 6.568 105.081 6.57867 105.124 6.6C105.188 6.62133 105.22 6.67466 105.22 6.76C105.305 7.82667 105.369 8.95733 105.412 10.152C105.476 11.3253 105.518 12.5413 105.54 13.8C105.561 15.0373 105.572 16.2853 105.572 17.544C105.593 18.7813 105.582 20.008 105.54 21.224C105.518 22.4187 105.476 23.56 105.412 24.648C105.369 25.736 105.305 26.7387 105.22 27.656C105.198 27.8053 105.145 27.944 105.06 28.072C104.974 28.1787 104.782 28.296 104.484 28.424C103.95 28.6373 103.246 28.8293 102.372 29C101.518 29.192 100.622 29.288 99.6838 29.288C98.8091 29.2667 97.9878 29.1493 97.2198 28.936C96.4518 28.7227 95.8118 28.3707 95.2998 27.88C94.6171 27.2613 94.1051 26.44 93.7638 25.416C93.4438 24.3707 93.2838 23.112 93.2838 21.64ZM95.5878 21.672C95.5878 23.08 95.7371 24.1787 96.0358 24.968C96.3558 25.7573 96.7931 26.3227 97.3478 26.664C97.7531 27.0053 98.2758 27.2293 98.9158 27.336C99.5558 27.4427 100.206 27.4533 100.868 27.368C101.55 27.2827 102.126 27.1333 102.596 26.92C102.702 26.856 102.798 26.792 102.884 26.728C102.969 26.664 103.012 26.5787 103.012 26.472C103.033 25.9387 103.065 25.32 103.108 24.616C103.15 23.8907 103.172 23.144 103.172 22.376C103.193 21.608 103.214 20.872 103.236 20.168C103.257 19.4427 103.268 18.792 103.268 18.216C103.268 17.64 103.257 17.2027 103.236 16.904C103.236 16.712 103.193 16.5733 103.108 16.488C103.022 16.4027 102.926 16.3387 102.82 16.296C102.35 16.168 101.817 16.0613 101.22 15.976C100.622 15.8907 100.11 15.848 99.6838 15.848C99.2784 15.848 98.8304 15.9227 98.3398 16.072C97.8704 16.2 97.4224 16.456 96.9958 16.84C96.5904 17.224 96.2598 17.8107 96.0038 18.6C95.7478 19.368 95.6091 20.392 95.5878 21.672ZM112.904 28.68C112.307 27.4853 111.752 26.2373 111.24 24.936C110.728 23.6133 110.28 22.312 109.896 21.032C109.512 19.7307 109.182 18.5253 108.904 17.416C108.648 16.2853 108.456 15.304 108.328 14.472C108.286 14.28 108.275 14.1413 108.296 14.056C108.339 13.9493 108.414 13.896 108.52 13.896H110.376C110.568 13.896 110.686 14.0027 110.728 14.216C110.835 14.856 110.974 15.624 111.144 16.52C111.336 17.3947 111.56 18.3013 111.816 19.24C112.072 20.1787 112.339 21.096 112.616 21.992C112.894 22.8667 113.15 23.656 113.384 24.36C113.64 25.0427 113.875 25.5653 114.088 25.928C114.131 26.056 114.184 26.1093 114.248 26.088C114.312 26.0667 114.355 26.024 114.376 25.96C114.632 25.5547 114.878 25.0213 115.112 24.36C115.347 23.6987 115.56 23.0053 115.752 22.28C115.944 21.5333 116.094 20.84 116.2 20.2C116.328 19.56 116.392 19.0587 116.392 18.696C116.392 18.44 116.382 18.1093 116.36 17.704C116.36 17.2773 116.36 16.84 116.36 16.392C116.36 15.944 116.35 15.528 116.328 15.144C116.328 14.7387 116.328 14.4293 116.328 14.216C116.328 14.0027 116.424 13.896 116.616 13.896H118.44C118.526 13.896 118.6 13.9173 118.664 13.96C118.728 14.0027 118.76 14.088 118.76 14.216C118.76 14.6853 118.771 15.304 118.792 16.072C118.814 16.84 118.835 17.7787 118.856 18.888C118.878 19.1867 118.942 19.592 119.048 20.104C119.176 20.616 119.336 21.16 119.528 21.736C119.72 22.312 119.912 22.888 120.104 23.464C120.318 24.04 120.51 24.552 120.68 25C120.872 25.448 121.032 25.7787 121.16 25.992C121.246 26.184 121.342 26.184 121.448 25.992C121.662 25.5867 121.896 25.032 122.152 24.328C122.408 23.624 122.664 22.8347 122.92 21.96C123.198 21.0853 123.454 20.1893 123.688 19.272C123.923 18.3333 124.126 17.4267 124.296 16.552C124.488 15.6773 124.638 14.9093 124.744 14.248C124.766 14.0133 124.904 13.896 125.16 13.896H126.792C126.92 13.896 126.995 13.9387 127.016 14.024C127.059 14.1093 127.059 14.2373 127.016 14.408C126.888 15.304 126.675 16.36 126.376 17.576C126.099 18.7707 125.758 20.04 125.352 21.384C124.968 22.7067 124.52 24.008 124.008 25.288C123.518 26.5467 123.006 27.6773 122.472 28.68C122.408 28.808 122.344 28.8933 122.28 28.936C122.216 28.9787 122.142 29 122.056 29H120.52C120.435 29 120.36 28.9893 120.296 28.968C120.254 28.9253 120.2 28.8507 120.136 28.744C119.859 28.2533 119.571 27.688 119.272 27.048C118.995 26.3867 118.728 25.7467 118.472 25.128C118.238 24.488 118.056 23.9333 117.928 23.464C117.8 23.0587 117.64 23.0587 117.448 23.464C117.363 23.8053 117.246 24.1787 117.096 24.584C116.947 24.9893 116.787 25.3947 116.616 25.8C116.446 26.2053 116.275 26.5893 116.104 26.952C115.955 27.272 115.795 27.592 115.624 27.912C115.475 28.232 115.347 28.5093 115.24 28.744C115.198 28.8293 115.134 28.8933 115.048 28.936C114.984 28.9787 114.91 29 114.824 29H113.352C113.224 29 113.139 28.9893 113.096 28.968C113.054 28.9253 112.99 28.8293 112.904 28.68ZM134.44 13.736C135.741 13.736 136.84 13.9067 137.736 14.248C137.842 14.312 137.917 14.3653 137.96 14.408C138.024 14.4507 138.045 14.5253 138.024 14.632L137.704 15.848C137.682 15.9547 137.64 16.0187 137.576 16.04C137.533 16.0613 137.458 16.0507 137.352 16.008C136.968 15.88 136.552 15.7947 136.104 15.752C135.656 15.688 135.24 15.656 134.856 15.656C134.514 15.656 134.162 15.688 133.8 15.752C133.437 15.816 133.106 15.8907 132.808 15.976C132.53 16.04 132.317 16.104 132.168 16.168C132.082 16.232 131.976 16.3067 131.848 16.392C131.72 16.4773 131.656 16.6693 131.656 16.968V28.648C131.656 28.7973 131.634 28.8933 131.592 28.936C131.549 28.9787 131.474 29 131.368 29H129.64C129.576 29 129.512 28.9787 129.448 28.936C129.405 28.8933 129.384 28.8187 129.384 28.712V15.624C129.384 15.304 129.426 15.0907 129.512 14.984C129.597 14.8773 129.725 14.7813 129.896 14.696C130.536 14.3973 131.282 14.1627 132.136 13.992C132.989 13.8213 133.757 13.736 134.44 13.736ZM142.732 9.736C142.732 10.12 142.647 10.4187 142.476 10.632C142.327 10.824 141.986 10.92 141.452 10.92C140.94 10.92 140.588 10.824 140.396 10.632C140.226 10.4187 140.14 10.12 140.14 9.736C140.14 9.37333 140.226 9.096 140.396 8.904C140.588 8.69067 140.94 8.584 141.452 8.584C142.007 8.584 142.359 8.69067 142.508 8.904C142.658 9.096 142.732 9.37333 142.732 9.736ZM142.604 28.776C142.604 28.9253 142.519 29 142.348 29H140.556C140.407 29 140.332 28.9253 140.332 28.776V14.12C140.332 13.9707 140.407 13.896 140.556 13.896H142.348C142.519 13.896 142.604 13.9707 142.604 14.12V28.776ZM151.729 29C150.406 29 149.425 28.7227 148.785 28.168C148.145 27.592 147.729 26.792 147.537 25.768C147.345 24.872 147.249 23.9333 147.249 22.952C147.249 21.9493 147.249 20.9253 147.249 19.88C147.249 19.1547 147.249 18.4613 147.249 17.8C147.27 17.1387 147.302 16.4667 147.345 15.784C147.345 15.592 147.26 15.496 147.089 15.496H145.457C145.372 15.496 145.308 15.4747 145.265 15.432C145.222 15.3893 145.201 15.3253 145.201 15.24V14.152C145.201 14.0667 145.222 14.0027 145.265 13.96C145.308 13.9173 145.382 13.896 145.489 13.896H147.121C147.228 13.896 147.302 13.8747 147.345 13.832C147.388 13.768 147.409 13.6613 147.409 13.512L147.569 10.792C147.569 10.6427 147.633 10.568 147.761 10.568H149.553C149.617 10.568 149.67 10.5893 149.713 10.632C149.777 10.6747 149.809 10.728 149.809 10.792L149.681 13.512C149.66 13.6613 149.66 13.768 149.681 13.832C149.724 13.8747 149.798 13.896 149.905 13.896H153.649C153.756 13.896 153.82 13.9173 153.841 13.96C153.884 13.9813 153.905 14.056 153.905 14.184V15.208C153.905 15.2933 153.884 15.368 153.841 15.432C153.798 15.4747 153.724 15.496 153.617 15.496H149.905C149.82 15.496 149.745 15.528 149.681 15.592C149.617 15.6347 149.585 15.72 149.585 15.848C149.564 16.5307 149.542 17.224 149.521 17.928C149.5 18.632 149.489 19.3467 149.489 20.072C149.489 20.9467 149.489 21.8427 149.489 22.76C149.51 23.656 149.617 24.5307 149.809 25.384C149.937 25.9813 150.172 26.4293 150.513 26.728C150.876 27.0267 151.43 27.176 152.177 27.176C152.476 27.176 152.774 27.144 153.073 27.08C153.372 26.9947 153.67 26.9093 153.969 26.824C154.118 26.7387 154.214 26.7067 154.257 26.728C154.3 26.7493 154.342 26.824 154.385 26.952L154.737 28.008C154.78 28.136 154.758 28.232 154.673 28.296C154.609 28.36 154.47 28.4453 154.257 28.552C154.022 28.6373 153.734 28.7227 153.393 28.808C153.073 28.872 152.764 28.9253 152.465 28.968C152.166 28.9893 151.921 29 151.729 29ZM156.155 21.416C156.155 20.4133 156.251 19.4533 156.443 18.536C156.656 17.6187 156.998 16.7973 157.467 16.072C157.936 15.3253 158.576 14.7493 159.387 14.344C160.219 13.9173 161.275 13.704 162.555 13.704C163.856 13.704 164.902 13.896 165.691 14.28C166.48 14.664 167.067 15.176 167.451 15.816C167.856 16.456 168.123 17.16 168.251 17.928C168.4 18.696 168.475 19.464 168.475 20.232C168.475 21.0213 168.39 21.512 168.219 21.704C168.07 21.896 167.835 21.992 167.515 21.992H158.779C158.715 21.992 158.64 22.0133 158.555 22.056C158.491 22.0987 158.459 22.216 158.459 22.408C158.459 23.3893 158.619 24.264 158.939 25.032C159.259 25.7787 159.75 26.3653 160.411 26.792C161.094 27.2187 161.947 27.432 162.971 27.432C163.675 27.432 164.411 27.3467 165.179 27.176C165.947 26.984 166.587 26.76 167.099 26.504C167.27 26.3973 167.408 26.3333 167.515 26.312C167.622 26.2907 167.718 26.376 167.803 26.568L168.219 27.368C168.283 27.496 168.294 27.592 168.251 27.656C168.23 27.6987 168.155 27.7627 168.027 27.848C167.344 28.296 166.512 28.6373 165.531 28.872C164.571 29.0853 163.59 29.192 162.587 29.192C161.264 29.192 160.187 29 159.355 28.616C158.523 28.2107 157.872 27.656 157.403 26.952C156.934 26.2267 156.603 25.3947 156.411 24.456C156.24 23.5173 156.155 22.504 156.155 21.416ZM166.139 19.848C166.139 19.08 166.043 18.376 165.851 17.736C165.659 17.0747 165.296 16.5413 164.763 16.136C164.251 15.7307 163.494 15.528 162.491 15.528C161.766 15.528 161.147 15.6667 160.635 15.944C160.123 16.2213 159.718 16.584 159.419 17.032C159.12 17.4587 158.896 17.9387 158.747 18.472C158.598 18.984 158.502 19.4747 158.459 19.944C158.459 20.1573 158.47 20.3067 158.491 20.392C158.534 20.456 158.64 20.488 158.811 20.488H165.595C165.808 20.488 165.958 20.456 166.043 20.392C166.128 20.328 166.16 20.1467 166.139 19.848Z" fill="#4D94F8"/>
</svg>
