<svg width="20" height="24" viewBox="0 0 14 18" fill="none" xmlns="http://www.w3.org/2000/svg">
<path d="M8.92088 0.5L13.7998 5.37947L13.7998 17.6842L0.200012 17.6842L0.200012 0.5L8.92088 0.5ZM8.9924 2.16697L8.9924 5.30764L12.1331 5.30764L8.9924 2.16697ZM1.32796 16.5562L12.6719 16.5562L12.6719 6.30291L7.99689 6.30291L7.99689 1.62818L1.32796 1.62818L1.32796 16.5562Z" fill="white"/>
<path d="M3.69078 8.48698L10.3096 8.48698V9.35613L3.69078 9.35613V8.48698Z" fill="white"/>
<path d="M3.69078 10.8604L10.3096 10.8604V11.7295L3.69078 11.7295V10.8604Z" fill="white"/>
<path d="M3.69078 13.2338L10.3096 13.2338V14.1029L3.69078 14.1029V13.2338Z" fill="white"/>
</svg>
